<?xml version="1.0" encoding="UTF-8" standalone="no"?>
<!DOCTYPE svg PUBLIC "-//W3C//DTD SVG 1.1//EN" "http://www.w3.org/Graphics/SVG/1.1/DTD/svg11.dtd">
<svg width="100%" height="100%" viewBox="0 0 50 32" version="1.1" xmlns="http://www.w3.org/2000/svg" xmlns:xlink="http://www.w3.org/1999/xlink" xml:space="preserve" xmlns:serif="http://www.serif.com/" style="fill-rule:evenodd;clip-rule:evenodd;stroke-linejoin:round;stroke-miterlimit:2;">
    <path d="M22.338,31.095C25.649,31.319 29.066,31.614 32.429,32C27.296,25.41 17.896,10.99 15.076,2.747C11.334,11.026 3.08,28.164 0,30.492C1.994,30.445 5.193,30.433 9.104,30.515L9.111,30.492C10.448,27.96 14.273,20.558 15.401,10.559C15.907,15.336 18.742,26.16 22.343,31.03L22.338,31.095Z" style="fill:rgb(238,104,74);fill-rule:nonzero;"/>
    <path d="M33.08,31.892C22.364,18.101 16.829,6.68 15.401,2.694C24.122,2.392 32.122,0.772 35.033,0C37.636,7.025 46.095,17.257 50,21.495L33.08,31.892Z" style="fill:rgb(238,104,74);fill-rule:nonzero;"/>
</svg>
