<?xml version="1.0" encoding="UTF-8" standalone="no"?>
<!DOCTYPE svg PUBLIC "-//W3C//DTD SVG 1.1//EN" "http://www.w3.org/Graphics/SVG/1.1/DTD/svg11.dtd">
<svg width="100%" height="100%" viewBox="0 0 153 32" version="1.1" xmlns="http://www.w3.org/2000/svg" xmlns:xlink="http://www.w3.org/1999/xlink" xml:space="preserve" xmlns:serif="http://www.serif.com/" style="fill-rule:evenodd;clip-rule:evenodd;stroke-linejoin:round;stroke-miterlimit:2;">
    <path d="M22.338,31.095C25.649,31.319 29.066,31.614 32.429,32C27.296,25.41 17.896,10.99 15.076,2.747C11.334,11.026 3.08,28.164 0,30.492C1.994,30.445 5.193,30.433 9.104,30.515L9.111,30.492C10.448,27.96 14.273,20.558 15.401,10.559C15.907,15.336 18.742,26.16 22.343,31.03L22.338,31.095Z" style="fill:rgb(238,104,74);fill-rule:nonzero;"/>
    <path d="M33.08,31.892C22.364,18.101 16.829,6.68 15.401,2.694C24.122,2.392 32.122,0.772 35.033,0C37.636,7.025 46.095,17.257 50,21.495L33.08,31.892Z" style="fill:rgb(238,104,74);fill-rule:nonzero;"/>
    <path d="M65.395,21.112C61.879,21.112 61,19.031 61,16.556L61,15.48L63.87,15.48L63.87,16.556C63.87,17.776 64.157,18.475 65.215,18.475C66.274,18.475 66.561,17.776 66.561,16.556L66.561,8L69.789,8L69.789,16.556C69.789,19.031 68.91,21.112 65.395,21.112Z" style="fill:white;fill-rule:nonzero;"/>
    <path d="M75.24,21.13C72.209,21.13 70.361,19.157 70.361,16.251C70.361,13.363 72.209,11.336 75.294,11.336C78.326,11.336 80.173,13.309 80.173,16.197C80.173,19.103 78.326,21.13 75.24,21.13ZM75.276,18.978C76.55,18.978 77.267,18.009 77.267,16.233C77.267,14.457 76.55,13.489 75.276,13.489C73.985,13.489 73.267,14.457 73.267,16.233C73.267,18.009 73.985,18.978 75.276,18.978Z" style="fill:white;fill-rule:nonzero;"/>
    <path d="M86.735,11.354C88.511,11.354 89.712,12.52 89.712,14.619L89.712,20.825L86.843,20.825L86.843,15.534C86.843,14.153 86.358,13.686 85.408,13.686C84.313,13.686 83.686,14.242 83.686,15.516L83.686,20.825L80.816,20.825L80.816,8L83.686,8L83.686,12.969L83.721,12.969C84.206,12.126 85.103,11.354 86.735,11.354Z" style="fill:white;fill-rule:nonzero;"/>
    <path d="M96.619,11.354C98.395,11.354 99.597,12.52 99.597,14.619L99.597,20.825L96.727,20.825L96.727,15.534C96.727,14.153 96.243,13.686 95.292,13.686C94.198,13.686 93.57,14.242 93.57,15.516L93.57,20.825L90.7,20.825L90.7,11.641L93.57,11.641L93.57,12.969L93.606,12.969C94.09,12.126 94.987,11.354 96.619,11.354Z" style="fill:white;fill-rule:nonzero;"/>
    <path d="M106.978,20.825L103.749,20.825L103.749,8L106.978,8L106.978,13.022L111.372,13.022L111.372,8L114.601,8L114.601,20.825L111.372,20.825L111.372,15.659L106.978,15.659L106.978,20.825Z" style="fill:white;fill-rule:nonzero;"/>
    <path d="M120.125,21.13C117.094,21.13 115.246,19.157 115.246,16.251C115.246,13.363 117.094,11.336 120.179,11.336C123.211,11.336 125.058,13.309 125.058,16.197C125.058,19.103 123.211,21.13 120.125,21.13ZM120.161,18.978C121.435,18.978 122.152,18.009 122.152,16.233C122.152,14.457 121.435,13.489 120.161,13.489C118.87,13.489 118.152,14.457 118.152,16.233C118.152,18.009 118.87,18.978 120.161,18.978Z" style="fill:white;fill-rule:nonzero;"/>
    <path d="M127.341,24C126.713,24 126.229,23.946 125.619,23.821L125.619,21.632C125.924,21.668 126.157,21.686 126.48,21.686C127.036,21.686 127.843,21.668 128.094,20.7L124.435,11.641L127.395,11.641L129.547,17.686L129.583,17.686L131.556,11.641L134.39,11.641L131.036,20.843C130.265,22.942 129.368,24 127.341,24Z" style="fill:white;fill-rule:nonzero;"/>
    <path d="M138.466,21.112C135.255,21.112 133.999,19.57 133.928,17.776L136.618,17.776C136.708,18.691 137.318,19.139 138.412,19.139C139.255,19.139 139.632,18.87 139.632,18.35C139.632,17.525 138.717,17.435 137.389,17.13C135.775,16.753 134.107,16.108 134.107,14.242C134.107,12.52 135.542,11.354 138.125,11.354C141.067,11.354 142.215,12.843 142.304,14.457L139.614,14.457C139.524,13.722 139.129,13.327 138.179,13.327C137.389,13.327 137.049,13.614 137.049,14.063C137.049,14.673 137.587,14.709 138.968,15.031C140.78,15.462 142.573,16 142.573,18.135C142.573,20.054 141.12,21.112 138.466,21.112Z" style="fill:white;fill-rule:nonzero;"/>
    <path d="M145.722,21.112C143.928,21.112 142.798,20.054 142.798,18.422C142.798,16.52 144.359,15.785 146.314,15.372C147.318,15.157 148.735,15.014 148.735,14.099C148.735,13.596 148.341,13.274 147.516,13.274C146.457,13.274 145.973,13.704 145.883,14.601L143.157,14.601C143.246,12.843 144.538,11.336 147.641,11.336C150.134,11.336 151.516,12.341 151.516,15.157L151.516,18.709C151.516,19.193 151.569,19.408 151.856,19.408C151.928,19.408 151.982,19.408 152.09,19.39L152.09,20.753C151.516,20.861 150.924,20.915 150.511,20.915C149.363,20.915 148.933,20.484 148.789,19.713L148.753,19.713C148.107,20.52 147.049,21.112 145.722,21.112ZM146.924,19.139C148.072,19.139 148.735,18.17 148.735,17.112L148.735,16.341C148.359,16.484 147.928,16.592 147.175,16.771C146.116,17.022 145.74,17.471 145.74,18.117C145.74,18.816 146.188,19.139 146.924,19.139Z" style="fill:white;fill-rule:nonzero;"/>
</svg>
