<?xml version="1.0" encoding="UTF-8" standalone="no"?>
<!DOCTYPE svg PUBLIC "-//W3C//DTD SVG 1.1//EN" "http://www.w3.org/Graphics/SVG/1.1/DTD/svg11.dtd">
<svg width="100%" height="100%" viewBox="0 0 16 15" version="1.1" xmlns="http://www.w3.org/2000/svg" xmlns:xlink="http://www.w3.org/1999/xlink" xml:space="preserve" xmlns:serif="http://www.serif.com/" style="fill-rule:evenodd;clip-rule:evenodd;stroke-linejoin:round;stroke-miterlimit:2;">
    <g transform="matrix(1,0,0,1,-4.00146,-4.49832)">
        <path d="M12.249,18.215C11.86,17.829 11.86,17.2 12.249,16.814L16.606,12.499L5.004,12.499C4.45,12.499 4.001,12.052 4.001,11.499C4.001,10.947 4.45,10.499 5.004,10.499L16.65,10.499L12.293,6.184C11.904,5.799 11.904,5.169 12.293,4.784C12.677,4.403 13.296,4.403 13.68,4.784L19.708,10.754C20.028,11.071 20.085,11.553 19.878,11.929C19.83,12.044 19.758,12.151 19.664,12.245L13.636,18.215C13.252,18.595 12.633,18.595 12.249,18.215Z" style="fill-rule:nonzero; fill:#EE684A"/>
    </g>
</svg>
