<?xml version="1.0" encoding="UTF-8" standalone="no"?>
<!DOCTYPE svg PUBLIC "-//W3C//DTD SVG 1.1//EN" "http://www.w3.org/Graphics/SVG/1.1/DTD/svg11.dtd">
<svg width="100%" height="100%" viewBox="0 0 42 42" version="1.1" xmlns="http://www.w3.org/2000/svg" xmlns:xlink="http://www.w3.org/1999/xlink" xml:space="preserve" xmlns:serif="http://www.serif.com/" style="fill-rule:evenodd;clip-rule:evenodd;">
    <g transform="matrix(1,0,0,1,-4.02611,-3.35961)">
        <path d="M14.595,38.784L14.597,38.785L24.405,44.065C24.405,44.065 24.405,44.065 24.406,44.065C24.543,44.141 24.717,44.147 24.864,44.07L24.866,44.069L34.651,38.797C34.816,38.721 34.931,38.555 34.931,38.36L34.931,32.687L44.471,27.546C44.636,27.47 44.75,27.304 44.75,27.109L44.75,21.028L44.75,21.026C44.747,20.848 44.667,20.685 44.498,20.591L44.497,20.59L34.931,15.438L34.931,9.647C34.931,9.474 34.838,9.307 34.675,9.218L34.675,9.218L24.87,3.936C24.73,3.857 24.556,3.854 24.41,3.932L24.41,3.932L14.598,9.217L14.597,9.217C14.431,9.307 14.344,9.476 14.344,9.654L14.344,15.448L4.798,20.59L4.797,20.591C4.635,20.679 4.541,20.849 4.544,21.021L4.542,27.109C4.542,27.302 4.656,27.47 4.821,27.546L14.343,32.675L14.343,38.359C14.343,38.532 14.437,38.696 14.595,38.784ZM6.031,21.023L14.826,16.283L23.631,21.027L14.836,25.764L6.031,21.023ZM15.308,33.087L24.153,37.85L24.153,42.836L15.308,38.072L15.308,33.087ZM33.965,33.087L33.965,38.072L25.119,42.836L25.119,37.85L33.965,33.087ZM24.636,37.014L15.956,32.337L24.645,27.656L33.328,32.331L24.636,37.014ZM5.51,21.836L14.354,26.599L14.354,31.585L5.51,26.821L5.51,21.836ZM24.163,21.836L24.163,26.821L15.319,31.585L15.319,26.599L24.163,21.836ZM25.129,21.836L33.973,26.599L33.973,31.585L25.129,26.821L25.129,21.836ZM43.784,21.836L43.784,26.821L34.941,31.585L34.941,26.599L43.784,21.836ZM43.262,21.023L34.455,25.764L25.65,21.023L34.455,16.279L43.262,21.023ZM15.308,10.463L24.153,15.227L24.153,20.212L15.308,15.448L15.308,10.463ZM33.965,10.463L33.965,15.448L25.119,20.212L25.119,15.227L33.965,10.463ZM24.636,14.391L15.831,9.65L24.636,4.906L33.44,9.65L24.636,14.391Z" style="fill:rgb(238,104,74);fill-rule:nonzero;stroke:rgb(238,104,74);stroke-width:0.25px;"/>
    </g>
</svg>
