<?xml version="1.0" encoding="UTF-8" standalone="no"?>
<!DOCTYPE svg PUBLIC "-//W3C//DTD SVG 1.1//EN" "http://www.w3.org/Graphics/SVG/1.1/DTD/svg11.dtd">
<svg width="100%" height="100%" viewBox="0 0 20 14" version="1.1" xmlns="http://www.w3.org/2000/svg" xmlns:xlink="http://www.w3.org/1999/xlink" xml:space="preserve" xmlns:serif="http://www.serif.com/" style="fill-rule:evenodd;clip-rule:evenodd;stroke-linejoin:round;stroke-miterlimit:2;">
    <g transform="matrix(1,0,0,1,-2,-4.99971)">
        <path d="M5.027,6.891L3.003,5.031C3.096,5.008 3.191,4.998 3.286,5L20.712,5C20.807,5 20.902,5.008 20.994,5.031C18.61,7.213 13.693,11.772 12.425,12.943C12.315,13.041 12.16,13.094 12,13.094C11.841,13.094 11.686,13.039 11.575,12.943C10.678,12.108 7.362,9.046 5.029,6.891L5.027,6.891ZM21.979,5.927L20,7.755C17.667,9.91 14.363,12.96 13.489,13.771C13.108,14.127 12.567,14.329 12,14.329C11.434,14.329 10.893,14.127 10.511,13.771C9.607,12.937 6.298,9.881 3.958,7.72L2.021,5.927C2.007,5.982 2,6.037 2,6.092L2,17.152C2,17.754 2.576,18.241 3.286,18.244L20.712,18.244C21.422,18.244 21.995,17.754 21.998,17.152L21.998,6.092C21.998,6.035 21.991,5.98 21.977,5.927L21.979,5.927Z" style="fill:white;fill-rule:nonzero;"/>
    </g>
</svg>
